# xmcd
#
# Track frame offsets: 
#        150
#        16512
#        36650
#        55932
#        76182
#        91536
#        117119
#        140922
#        156438
#        179928
#        200275
#        232653
#        248909
#
# Disc length: 3454 seconds
#
# Revision: 0
# Processed by: cddbd v1.5.2PL0 Copyright (c) Steve Scherf et al.
# Submitted via: ExactAudioCopyFreeDBPlugin 1.0
#
DISCID=a50d7c0d
DTITLE=Frank Bey and Anthony Paule Band - Soul For Your Blues
DYEAR=2013
DGENRE=Blues
TTITLE0=I Don't Know Why
TTITLE1=I'm Leaving You
TTITLE2=I Just Can't Go On
TTITLE3=Don't Mess With The Monkey
TTITLE4=Buzzard Luck
TTITLE5=You're Somebody Else's Baby Too
TTITLE6=I Want To Change Your Mind
TTITLE7=Smokehouse
TTITLE8=Nothing Stays The Same Forever
TTITLE9=It's Good To Have Your Company
TTITLE10=Hello In There
TTITLE11=Bed For My Soul
TTITLE12=I Left My Heart In San Francisco
EXTD=
EXTT0=
EXTT1=
EXTT2=
EXTT3=
EXTT4=
EXTT5=
EXTT6=
EXTT7=
EXTT8=
EXTT9=
EXTT10=
EXTT11=
EXTT12=
PLAYORDER=
